# xmcd
#
# Track frame offsets:
#	150
#	14437
#	25415
#	33859
#	44756
#	55254
#	67543
#	78014
#	89520
#	104815
#	118925
#	129590
#	142807
#	155816
#	168714
#	178334
#	192415
#	205420
#	219111
#	233773
#	248746
#	263925
#	271692
#	282670
#	296362
#	306510
#
# Disc length: 4260 seconds
#
# Revision: 0
# Processed by: cddbd v1.5.2PL0 Copyright (c) Steve Scherf et al.
# Submitted via: EasyCDDAExtractor 16.0.9.1
#
DISCID=8810a21a
DTITLE=Вадим Егоров - Российские барды 12
DYEAR=2010
DGENRE=Ballad
TTITLE0=Дождь смоет все следы
TTITLE1=Пьеро
TTITLE2=Дожди
TTITLE3=Монолог сына
TTITLE4=Друзья уходят
TTITLE5=Разговор с другом
TTITLE6=Мои шестидесятые
TTITLE7=Юбилеи
TTITLE8=Монолог дочери
TTITLE9=Две родины
TTITLE10=Облака
TTITLE11=Здравствуй,день
TTITLE12=Патриаршьи пруды
TTITLE13=Переезд
TTITLE14=Мы купались неглиже
TTITLE15=На смерть собаки
TTITLE16=Бабье лето
TTITLE17=Карусель
TTITLE18=Лето
TTITLE19=Не торопи
TTITLE20=В Лефортовском парке
TTITLE21=Сумерки
TTITLE22=Мне снится женщина одна
TTITLE23=Ожидание
TTITLE24=Диалектика любви
TTITLE25=Пусть дожидаются меня
EXTD=Eieeaeoey «?inneeneea aa?au». Aene ?12 (Aaaei Aai?ia).\n\nIocuea, neiaa: 
EXTD=Aaaei Aai?ia (1 - 26).\n\n(C) A. Aai?ia, 2010.\n(P) OOO «Oieuei Iocuea», 
EXTD=2010.\n(P) OOO «?IA», 2010.\n(P) «Ecaaoaeuneee Aii «Eiiniiieuneay i?aaaa»
EXTD=, 2010.\n
EXTT0=
EXTT1=
EXTT2=
EXTT3=
EXTT4=
EXTT5=
EXTT6=
EXTT7=
EXTT8=
EXTT9=
EXTT10=
EXTT11=
EXTT12=
EXTT13=
EXTT14=
EXTT15=
EXTT16=
EXTT17=
EXTT18=
EXTT19=
EXTT20=
EXTT21=
EXTT22=
EXTT23=
EXTT24=
EXTT25=
PLAYORDER=
